<mxfile host="Electron" agent="Mozilla/5.0 (Windows NT 10.0; Win64; x64) AppleWebKit/537.36 (KHTML, like Gecko) draw.io/24.7.17 Chrome/128.0.6613.36 Electron/32.0.1 Safari/537.36" version="24.7.17">
  <diagram name="Página-1" id="veCjRKkKvRt-dCM9Uo-P">
    <mxGraphModel dx="1181" dy="644" grid="1" gridSize="10" guides="1" tooltips="1" connect="1" arrows="1" fold="1" page="1" pageScale="1" pageWidth="827" pageHeight="1169" math="0" shadow="0">
      <root>
        <mxCell id="0" />
        <mxCell id="1" parent="0" />
        <mxCell id="831HMT7RGFxExj6qzCca-49" value="Healthcare System" style="shape=folder;fontStyle=1;spacingTop=3;tabWidth=40;tabHeight=14;tabPosition=left;html=1;whiteSpace=wrap;labelPosition=center;verticalLabelPosition=top;align=center;verticalAlign=bottom;labelBackgroundColor=none;labelBorderColor=none;spacing=-32;fillColor=#1BA1E2;strokeColor=#030303;" parent="1" vertex="1">
          <mxGeometry x="770" y="160" width="520" height="320" as="geometry" />
        </mxCell>
        <mxCell id="831HMT7RGFxExj6qzCca-50" value="MDBackoffice" style="shape=folder;fontStyle=1;spacingTop=10;tabWidth=40;tabHeight=14;tabPosition=left;html=1;whiteSpace=wrap;fillColor=#1BA1E2;strokeColor=#030303;" parent="1" vertex="1">
          <mxGeometry x="810" y="210" width="140" height="80" as="geometry" />
        </mxCell>
        <mxCell id="831HMT7RGFxExj6qzCca-51" value="Planning" style="shape=folder;fontStyle=1;spacingTop=10;tabWidth=40;tabHeight=14;tabPosition=left;html=1;whiteSpace=wrap;fillColor=#1BA1E2;strokeColor=#030303;" parent="1" vertex="1">
          <mxGeometry x="1110" y="210" width="140" height="80" as="geometry" />
        </mxCell>
        <mxCell id="831HMT7RGFxExj6qzCca-52" value="Visualization" style="shape=folder;fontStyle=1;spacingTop=10;tabWidth=40;tabHeight=14;tabPosition=left;html=1;whiteSpace=wrap;fillColor=#1BA1E2;strokeColor=#030303;" parent="1" vertex="1">
          <mxGeometry x="810" y="360" width="140" height="80" as="geometry" />
        </mxCell>
        <mxCell id="831HMT7RGFxExj6qzCca-53" value="" style="html=1;verticalAlign=bottom;endArrow=open;dashed=1;endSize=8;curved=0;rounded=0;entryX=-0.001;entryY=0.545;entryDx=0;entryDy=0;entryPerimeter=0;exitX=0.994;exitY=0.55;exitDx=0;exitDy=0;exitPerimeter=0;strokeColor=#030303;" parent="1" source="831HMT7RGFxExj6qzCca-50" target="831HMT7RGFxExj6qzCca-51" edge="1">
          <mxGeometry relative="1" as="geometry">
            <mxPoint x="1410" y="320" as="sourcePoint" />
            <mxPoint x="1070" y="320" as="targetPoint" />
          </mxGeometry>
        </mxCell>
        <mxCell id="831HMT7RGFxExj6qzCca-54" value="" style="html=1;verticalAlign=bottom;endArrow=open;dashed=1;endSize=8;curved=0;rounded=0;entryX=0.5;entryY=1;entryDx=0;entryDy=0;entryPerimeter=0;exitX=0.506;exitY=0.204;exitDx=0;exitDy=0;exitPerimeter=0;strokeColor=#030303;" parent="1" source="831HMT7RGFxExj6qzCca-52" target="831HMT7RGFxExj6qzCca-50" edge="1">
          <mxGeometry relative="1" as="geometry">
            <mxPoint x="1140" y="267" as="sourcePoint" />
            <mxPoint x="960" y="267" as="targetPoint" />
          </mxGeometry>
        </mxCell>
        <mxCell id="831HMT7RGFxExj6qzCca-55" value="BCP" style="shape=folder;fontStyle=1;spacingTop=10;tabWidth=40;tabHeight=14;tabPosition=left;html=1;whiteSpace=wrap;fillColor=#1BA1E2;strokeColor=#030303;" parent="1" vertex="1">
          <mxGeometry x="1114" y="370" width="140" height="80" as="geometry" />
        </mxCell>
        <mxCell id="831HMT7RGFxExj6qzCca-57" value="" style="html=1;dropTarget=0;whiteSpace=wrap;fillColor=#1ba1e2;fontColor=#ffffff;strokeColor=#00060A;container=0;movable=1;resizable=1;rotatable=1;deletable=1;editable=1;locked=0;connectable=1;" parent="1" vertex="1">
          <mxGeometry x="97" y="134.5" width="513" height="375" as="geometry" />
        </mxCell>
        <mxCell id="831HMT7RGFxExj6qzCca-56" value="" style="endArrow=block;startArrow=none;endFill=0;startFill=0;endSize=8;html=1;verticalAlign=bottom;dashed=1;labelBackgroundColor=none;rounded=0;exitX=0;exitY=0;exitDx=0;exitDy=30.5;exitPerimeter=0;entryX=0.345;entryY=1.159;entryDx=0;entryDy=0;entryPerimeter=0;fillColor=#000000;" parent="1" edge="1" target="831HMT7RGFxExj6qzCca-73">
          <mxGeometry width="160" relative="1" as="geometry">
            <mxPoint x="819" y="242.5" as="sourcePoint" />
            <mxPoint x="335.25" y="232" as="targetPoint" />
            <Array as="points">
              <mxPoint x="619" y="152" />
            </Array>
          </mxGeometry>
        </mxCell>
        <mxCell id="831HMT7RGFxExj6qzCca-58" value="&lt;span style=&quot;color: rgb(255, 255, 255);&quot;&gt;«component»&lt;/span&gt;&lt;br style=&quot;color: rgb(255, 255, 255);&quot;&gt;&lt;span style=&quot;color: rgb(255, 255, 255);&quot;&gt;«C4 system»&lt;/span&gt;&lt;br style=&quot;color: rgb(255, 255, 255);&quot;&gt;&lt;b style=&quot;color: rgb(255, 255, 255);&quot;&gt;Healthcare System&lt;/b&gt;" style="text;html=1;align=center;verticalAlign=middle;whiteSpace=wrap;rounded=0;" parent="1" vertex="1">
          <mxGeometry x="280" y="142" width="150" height="45" as="geometry" />
        </mxCell>
        <mxCell id="831HMT7RGFxExj6qzCca-59" value="" style="ellipse;whiteSpace=wrap;html=1;align=center;aspect=fixed;fillColor=none;strokeColor=none;resizable=0;perimeter=centerPerimeter;rotatable=0;allowArrows=0;points=[];outlineConnect=1;" parent="1" vertex="1">
          <mxGeometry x="484" y="360" width="10" height="10" as="geometry" />
        </mxCell>
        <mxCell id="831HMT7RGFxExj6qzCca-60" value="" style="ellipse;whiteSpace=wrap;html=1;align=center;aspect=fixed;fillColor=none;strokeColor=none;resizable=0;perimeter=centerPerimeter;rotatable=0;allowArrows=0;points=[];outlineConnect=1;" parent="1" vertex="1">
          <mxGeometry x="514" y="380" width="10" height="10" as="geometry" />
        </mxCell>
        <mxCell id="831HMT7RGFxExj6qzCca-61" style="edgeStyle=orthogonalEdgeStyle;rounded=0;orthogonalLoop=1;jettySize=auto;html=1;entryX=0.5;entryY=0;entryDx=0;entryDy=0;endArrow=none;endFill=0;strokeColor=#000000;exitX=0.5;exitY=1;exitDx=0;exitDy=0;" parent="1" source="831HMT7RGFxExj6qzCca-63" target="831HMT7RGFxExj6qzCca-65" edge="1">
          <mxGeometry relative="1" as="geometry">
            <Array as="points">
              <mxPoint x="255" y="79" />
            </Array>
          </mxGeometry>
        </mxCell>
        <mxCell id="831HMT7RGFxExj6qzCca-62" value="&amp;nbsp;UI" style="edgeLabel;html=1;align=center;verticalAlign=middle;resizable=0;points=[];labelBackgroundColor=none;fontStyle=1" parent="831HMT7RGFxExj6qzCca-61" vertex="1" connectable="0">
          <mxGeometry x="-0.3286" y="-1" relative="1" as="geometry">
            <mxPoint y="5" as="offset" />
          </mxGeometry>
        </mxCell>
        <mxCell id="831HMT7RGFxExj6qzCca-63" value="" style="ellipse;whiteSpace=wrap;html=1;fillColor=#1ba1e2;fontColor=#ffffff;strokeColor=#006EAF;" parent="1" vertex="1">
          <mxGeometry x="245" y="59" width="20" height="20" as="geometry" />
        </mxCell>
        <mxCell id="831HMT7RGFxExj6qzCca-64" style="edgeStyle=orthogonalEdgeStyle;rounded=0;orthogonalLoop=1;jettySize=auto;html=1;exitX=0.5;exitY=1;exitDx=0;exitDy=0;entryX=0.5;entryY=0;entryDx=0;entryDy=0;strokeColor=#000000;endArrow=none;endFill=0;" parent="1" source="831HMT7RGFxExj6qzCca-65" target="831HMT7RGFxExj6qzCca-76" edge="1">
          <mxGeometry relative="1" as="geometry">
            <Array as="points">
              <mxPoint x="254" y="139" />
              <mxPoint x="254" y="225" />
            </Array>
          </mxGeometry>
        </mxCell>
        <mxCell id="831HMT7RGFxExj6qzCca-65" value="" style="rounded=0;whiteSpace=wrap;html=1;fillColor=#1ba1e2;fontColor=#ffffff;strokeColor=#000000;" parent="1" vertex="1">
          <mxGeometry x="247.5" y="129" width="15" height="10" as="geometry" />
        </mxCell>
        <mxCell id="831HMT7RGFxExj6qzCca-66" value="" style="group" parent="1" vertex="1" connectable="0">
          <mxGeometry x="194" y="226" width="203.5" height="96" as="geometry" />
        </mxCell>
        <mxCell id="831HMT7RGFxExj6qzCca-67" value="«component»&lt;div&gt;&lt;b style=&quot;background-color: initial;&quot;&gt;WebApplication&lt;/b&gt;&lt;/div&gt;" style="html=1;dropTarget=0;whiteSpace=wrap;fillColor=#1ba1e2;fontColor=#ffffff;strokeColor=#000000;" parent="831HMT7RGFxExj6qzCca-66" vertex="1">
          <mxGeometry x="-19" y="-1" width="150" height="80" as="geometry" />
        </mxCell>
        <mxCell id="831HMT7RGFxExj6qzCca-68" value="" style="shape=module;jettyWidth=8;jettyHeight=4;fillColor=#1ba1e2;fontColor=#ffffff;strokeColor=#006EAF;" parent="831HMT7RGFxExj6qzCca-67" vertex="1">
          <mxGeometry x="1" width="20" height="20" relative="1" as="geometry">
            <mxPoint x="-27" y="7" as="offset" />
          </mxGeometry>
        </mxCell>
        <mxCell id="831HMT7RGFxExj6qzCca-69" value="" style="fontStyle=0;labelPosition=right;verticalLabelPosition=middle;align=left;verticalAlign=middle;spacingLeft=2;fillColor=#1BA1E2;strokeColor=#030303;movable=1;resizable=1;rotatable=1;deletable=1;editable=1;locked=0;connectable=1;rotation=90;" parent="831HMT7RGFxExj6qzCca-66" vertex="1">
          <mxGeometry x="-23" y="19.5" width="12.5" height="10" as="geometry" />
        </mxCell>
        <mxCell id="831HMT7RGFxExj6qzCca-70" value="" style="rounded=0;whiteSpace=wrap;html=1;fillColor=#1ba1e2;fontColor=#ffffff;strokeColor=#000000;rotation=90;" parent="831HMT7RGFxExj6qzCca-66" vertex="1">
          <mxGeometry x="-23" y="59" width="12.5" height="10" as="geometry" />
        </mxCell>
        <mxCell id="831HMT7RGFxExj6qzCca-71" value="" style="fontStyle=0;labelPosition=right;verticalLabelPosition=middle;align=left;verticalAlign=middle;spacingLeft=2;fillColor=#1BA1E2;strokeColor=#030303;" parent="831HMT7RGFxExj6qzCca-66" vertex="1">
          <mxGeometry x="-6.75" y="-6" width="12.5" height="10" as="geometry" />
        </mxCell>
        <mxCell id="831HMT7RGFxExj6qzCca-72" value="" style="rounded=0;whiteSpace=wrap;html=1;fillColor=#1ba1e2;fontColor=#ffffff;strokeColor=#000000;" parent="831HMT7RGFxExj6qzCca-66" vertex="1">
          <mxGeometry x="126" y="34" width="12.5" height="10" as="geometry" />
        </mxCell>
        <mxCell id="831HMT7RGFxExj6qzCca-73" value="" style="ellipse;whiteSpace=wrap;html=1;align=center;aspect=fixed;fillColor=none;strokeColor=none;resizable=0;perimeter=centerPerimeter;rotatable=0;allowArrows=0;points=[];outlineConnect=1;" parent="831HMT7RGFxExj6qzCca-66" vertex="1">
          <mxGeometry x="127.25" y="-1" width="10" height="10" as="geometry" />
        </mxCell>
        <mxCell id="831HMT7RGFxExj6qzCca-74" value="" style="rounded=0;whiteSpace=wrap;html=1;fillColor=#1ba1e2;fontColor=#ffffff;strokeColor=#000000;" parent="831HMT7RGFxExj6qzCca-66" vertex="1">
          <mxGeometry x="126" y="59" width="12.5" height="10" as="geometry" />
        </mxCell>
        <mxCell id="831HMT7RGFxExj6qzCca-75" value="&lt;font style=&quot;font-size: 8px;&quot;&gt;MDBackoffice&lt;/font&gt;&lt;div&gt;&lt;font style=&quot;font-size: 8px;&quot;&gt;API&lt;/font&gt;&lt;/div&gt;" style="text;align=center;fontStyle=1;verticalAlign=middle;spacingLeft=3;spacingRight=3;strokeColor=none;rotatable=0;points=[[0,0.5],[1,0.5]];portConstraint=eastwest;html=1;" parent="831HMT7RGFxExj6qzCca-66" vertex="1">
          <mxGeometry x="146" y="49" width="46" height="26" as="geometry" />
        </mxCell>
        <mxCell id="831HMT7RGFxExj6qzCca-76" value="" style="rounded=0;whiteSpace=wrap;html=1;fillColor=#1ba1e2;fontColor=#ffffff;strokeColor=#000000;" parent="1" vertex="1">
          <mxGeometry x="248.5" y="221" width="12.5" height="10" as="geometry" />
        </mxCell>
        <mxCell id="831HMT7RGFxExj6qzCca-77" value="" style="shape=module;jettyWidth=8;jettyHeight=4;fillColor=#1ba1e2;fontColor=#ffffff;strokeColor=#006EAF;" parent="1" vertex="1">
          <mxGeometry x="554" y="142" width="20" height="20" as="geometry">
            <mxPoint x="-27" y="7" as="offset" />
          </mxGeometry>
        </mxCell>
        <mxCell id="831HMT7RGFxExj6qzCca-78" value="" style="fontStyle=0;labelPosition=right;verticalLabelPosition=middle;align=left;verticalAlign=middle;spacingLeft=2;fillColor=#1BA1E2;strokeColor=#030303;" parent="1" vertex="1">
          <mxGeometry x="91" y="245.5" width="10" height="10" as="geometry" />
        </mxCell>
        <mxCell id="831HMT7RGFxExj6qzCca-79" value="" style="ellipse;whiteSpace=wrap;html=1;align=center;aspect=fixed;fillColor=none;strokeColor=none;resizable=0;perimeter=centerPerimeter;rotatable=0;allowArrows=0;points=[];outlineConnect=1;" parent="1" vertex="1">
          <mxGeometry x="399" y="320" width="10" height="10" as="geometry" />
        </mxCell>
        <mxCell id="831HMT7RGFxExj6qzCca-80" value="«component»&lt;div&gt;«C4 Container»&lt;br&gt;&lt;b&gt;Planning&lt;/b&gt;&lt;/div&gt;" style="html=1;dropTarget=0;whiteSpace=wrap;fillColor=#1ba1e2;fontColor=#ffffff;strokeColor=#000000;" parent="1" vertex="1">
          <mxGeometry x="424" y="370" width="150" height="70" as="geometry" />
        </mxCell>
        <mxCell id="831HMT7RGFxExj6qzCca-81" value="" style="shape=module;jettyWidth=8;jettyHeight=4;fillColor=#1ba1e2;fontColor=#ffffff;strokeColor=#006EAF;" parent="831HMT7RGFxExj6qzCca-80" vertex="1">
          <mxGeometry x="1" width="20" height="20" relative="1" as="geometry">
            <mxPoint x="-27" y="7" as="offset" />
          </mxGeometry>
        </mxCell>
        <mxCell id="831HMT7RGFxExj6qzCca-82" value="" style="rounded=0;whiteSpace=wrap;html=1;fillColor=#1ba1e2;fontColor=#ffffff;strokeColor=#000000;rotation=-90;" parent="1" vertex="1">
          <mxGeometry x="495" y="360" width="10" height="15" as="geometry" />
        </mxCell>
        <mxCell id="831HMT7RGFxExj6qzCca-83" value="" style="rounded=0;orthogonalLoop=1;jettySize=auto;html=1;endArrow=halfCircle;endFill=0;endSize=6;strokeWidth=1;sketch=0;exitX=1;exitY=0.5;exitDx=0;exitDy=0;strokeColor=#030303;" parent="1" source="831HMT7RGFxExj6qzCca-72" target="831HMT7RGFxExj6qzCca-85" edge="1">
          <mxGeometry relative="1" as="geometry">
            <mxPoint x="354" y="285" as="sourcePoint" />
            <Array as="points">
              <mxPoint x="500" y="265" />
            </Array>
          </mxGeometry>
        </mxCell>
        <mxCell id="831HMT7RGFxExj6qzCca-84" value="" style="rounded=0;orthogonalLoop=1;jettySize=auto;html=1;endArrow=oval;endFill=0;sketch=0;sourcePerimeterSpacing=0;targetPerimeterSpacing=0;endSize=10;exitX=1;exitY=0.5;exitDx=0;exitDy=0;strokeColor=#030303;" parent="1" source="831HMT7RGFxExj6qzCca-82" target="831HMT7RGFxExj6qzCca-85" edge="1">
          <mxGeometry relative="1" as="geometry">
            <mxPoint x="314" y="285" as="sourcePoint" />
          </mxGeometry>
        </mxCell>
        <mxCell id="831HMT7RGFxExj6qzCca-85" value="" style="ellipse;whiteSpace=wrap;html=1;align=center;aspect=fixed;fillColor=none;strokeColor=none;resizable=0;perimeter=centerPerimeter;rotatable=0;allowArrows=0;points=[];outlineConnect=1;" parent="1" vertex="1">
          <mxGeometry x="495" y="297.5" width="10" height="10" as="geometry" />
        </mxCell>
        <mxCell id="831HMT7RGFxExj6qzCca-86" value="&lt;font style=&quot;font-size: 10px;&quot;&gt;Planning API&lt;/font&gt;" style="text;align=center;fontStyle=1;verticalAlign=middle;spacingLeft=3;spacingRight=3;strokeColor=none;rotatable=0;points=[[0,0.5],[1,0.5]];portConstraint=eastwest;html=1;" parent="1" vertex="1">
          <mxGeometry x="460" y="320" width="80" height="26" as="geometry" />
        </mxCell>
        <mxCell id="831HMT7RGFxExj6qzCca-87" value="«component»&lt;br&gt;&lt;b&gt;BCP&lt;/b&gt;" style="html=1;dropTarget=0;whiteSpace=wrap;fillColor=#1ba1e2;fontColor=#ffffff;strokeColor=#000000;" parent="1" vertex="1">
          <mxGeometry x="175" y="329" width="150" height="70" as="geometry" />
        </mxCell>
        <mxCell id="831HMT7RGFxExj6qzCca-88" value="" style="shape=module;jettyWidth=8;jettyHeight=4;fillColor=#1ba1e2;fontColor=#ffffff;strokeColor=#006EAF;" parent="831HMT7RGFxExj6qzCca-87" vertex="1">
          <mxGeometry x="1" width="20" height="20" relative="1" as="geometry">
            <mxPoint x="-27" y="7" as="offset" />
          </mxGeometry>
        </mxCell>
        <mxCell id="831HMT7RGFxExj6qzCca-89" value="" style="ellipse;whiteSpace=wrap;html=1;fillColor=#1ba1e2;fontColor=#ffffff;strokeColor=#006EAF;" parent="1" vertex="1">
          <mxGeometry x="182.75" y="59" width="20" height="20" as="geometry" />
        </mxCell>
        <mxCell id="831HMT7RGFxExj6qzCca-90" value="" style="fontStyle=0;labelPosition=right;verticalLabelPosition=middle;align=left;verticalAlign=middle;spacingLeft=2;fillColor=#1BA1E2;strokeColor=#030303;" parent="1" vertex="1">
          <mxGeometry x="186" y="129" width="13.75" height="10" as="geometry" />
        </mxCell>
        <mxCell id="831HMT7RGFxExj6qzCca-91" style="edgeStyle=orthogonalEdgeStyle;rounded=0;orthogonalLoop=1;jettySize=auto;html=1;exitX=0.5;exitY=1;exitDx=0;exitDy=0;entryX=0.5;entryY=0;entryDx=0;entryDy=0;strokeColor=#000000;endArrow=none;endFill=0;" parent="1" source="831HMT7RGFxExj6qzCca-90" target="831HMT7RGFxExj6qzCca-71" edge="1">
          <mxGeometry relative="1" as="geometry">
            <Array as="points" />
            <mxPoint x="194.26" y="139" as="sourcePoint" />
            <mxPoint x="193.26" y="225" as="targetPoint" />
          </mxGeometry>
        </mxCell>
        <mxCell id="831HMT7RGFxExj6qzCca-92" style="edgeStyle=orthogonalEdgeStyle;rounded=0;orthogonalLoop=1;jettySize=auto;html=1;entryX=0.5;entryY=0;entryDx=0;entryDy=0;endArrow=none;endFill=0;strokeColor=#000000;exitX=0.5;exitY=1;exitDx=0;exitDy=0;" parent="1" edge="1">
          <mxGeometry relative="1" as="geometry">
            <Array as="points">
              <mxPoint x="192.75" y="99" />
              <mxPoint x="192.75" y="99" />
            </Array>
            <mxPoint x="192.75" y="79" as="sourcePoint" />
            <mxPoint x="192.75" y="129" as="targetPoint" />
          </mxGeometry>
        </mxCell>
        <mxCell id="831HMT7RGFxExj6qzCca-93" value="MDBackoffice&lt;div&gt;API&lt;/div&gt;" style="edgeLabel;html=1;align=center;verticalAlign=middle;resizable=0;points=[];labelBackgroundColor=none;fontStyle=1" parent="831HMT7RGFxExj6qzCca-92" vertex="1" connectable="0">
          <mxGeometry x="-0.3286" y="-1" relative="1" as="geometry">
            <mxPoint y="5" as="offset" />
          </mxGeometry>
        </mxCell>
        <mxCell id="831HMT7RGFxExj6qzCca-94" value="" style="rounded=0;orthogonalLoop=1;jettySize=auto;html=1;endArrow=halfCircle;endFill=0;endSize=6;strokeWidth=1;sketch=0;fontSize=12;curved=1;exitX=0;exitY=0.5;exitDx=0;exitDy=0;fillColor=#030303;strokeColor=#030303;" parent="1" edge="1">
          <mxGeometry relative="1" as="geometry">
            <mxPoint x="91" y="251" as="sourcePoint" />
            <mxPoint x="11" y="251" as="targetPoint" />
            <Array as="points" />
          </mxGeometry>
        </mxCell>
        <mxCell id="831HMT7RGFxExj6qzCca-95" value="&lt;b&gt;&lt;font style=&quot;font-size: 11px;&quot;&gt;Public Email&lt;/font&gt;&lt;/b&gt;&lt;div&gt;&lt;b&gt;&lt;font style=&quot;font-size: 11px;&quot;&gt;API&lt;/font&gt;&lt;/b&gt;&lt;/div&gt;" style="text;html=1;align=center;verticalAlign=middle;whiteSpace=wrap;rounded=0;" parent="1" vertex="1">
          <mxGeometry x="19" y="237" width="74" height="30" as="geometry" />
        </mxCell>
        <mxCell id="831HMT7RGFxExj6qzCca-96" value="" style="endArrow=none;html=1;rounded=0;exitX=1;exitY=0.5;exitDx=0;exitDy=0;entryX=0.5;entryY=1;entryDx=0;entryDy=0;strokeColor=#000000;" parent="1" source="831HMT7RGFxExj6qzCca-78" target="831HMT7RGFxExj6qzCca-69" edge="1">
          <mxGeometry width="50" height="50" relative="1" as="geometry">
            <mxPoint x="201" y="299" as="sourcePoint" />
            <mxPoint x="251" y="249" as="targetPoint" />
          </mxGeometry>
        </mxCell>
        <mxCell id="831HMT7RGFxExj6qzCca-97" value="" style="fontStyle=0;labelPosition=right;verticalLabelPosition=middle;align=left;verticalAlign=middle;spacingLeft=2;fillColor=#1BA1E2;strokeColor=#030303;" parent="1" vertex="1">
          <mxGeometry x="90" y="285.5" width="10" height="10" as="geometry" />
        </mxCell>
        <mxCell id="831HMT7RGFxExj6qzCca-98" value="" style="rounded=0;orthogonalLoop=1;jettySize=auto;html=1;endArrow=halfCircle;endFill=0;endSize=6;strokeWidth=1;sketch=0;fontSize=12;curved=1;exitX=0;exitY=0.5;exitDx=0;exitDy=0;fillColor=#030303;strokeColor=#030303;" parent="1" edge="1">
          <mxGeometry relative="1" as="geometry">
            <mxPoint x="90" y="291" as="sourcePoint" />
            <mxPoint x="10" y="291" as="targetPoint" />
            <Array as="points" />
          </mxGeometry>
        </mxCell>
        <mxCell id="831HMT7RGFxExj6qzCca-99" value="&lt;b&gt;&lt;font style=&quot;font-size: 11px;&quot;&gt;Public Auth&lt;/font&gt;&lt;/b&gt;&lt;div&gt;&lt;b&gt;&lt;font style=&quot;font-size: 11px;&quot;&gt;API&lt;/font&gt;&lt;/b&gt;&lt;/div&gt;" style="text;html=1;align=center;verticalAlign=middle;whiteSpace=wrap;rounded=0;" parent="1" vertex="1">
          <mxGeometry x="17" y="267" width="76" height="47" as="geometry" />
        </mxCell>
        <mxCell id="831HMT7RGFxExj6qzCca-100" value="" style="endArrow=none;html=1;rounded=0;exitX=1;exitY=0.5;exitDx=0;exitDy=0;entryX=-0.017;entryY=0.815;entryDx=0;entryDy=0;strokeColor=#000000;entryPerimeter=0;" parent="1" source="831HMT7RGFxExj6qzCca-97" target="831HMT7RGFxExj6qzCca-67" edge="1">
          <mxGeometry width="50" height="50" relative="1" as="geometry">
            <mxPoint x="200" y="339" as="sourcePoint" />
            <mxPoint x="171" y="290" as="targetPoint" />
          </mxGeometry>
        </mxCell>
        <mxCell id="831HMT7RGFxExj6qzCca-101" value="«component»&lt;br&gt;&lt;b&gt;GDPR&lt;/b&gt;" style="html=1;dropTarget=0;whiteSpace=wrap;fillColor=#1ba1e2;fontColor=#ffffff;strokeColor=#000000;" parent="1" vertex="1">
          <mxGeometry x="175" y="419" width="150" height="70" as="geometry" />
        </mxCell>
        <mxCell id="831HMT7RGFxExj6qzCca-102" value="" style="shape=module;jettyWidth=8;jettyHeight=4;fillColor=#1ba1e2;fontColor=#ffffff;strokeColor=#006EAF;" parent="831HMT7RGFxExj6qzCca-101" vertex="1">
          <mxGeometry x="1" width="20" height="20" relative="1" as="geometry">
            <mxPoint x="-27" y="7" as="offset" />
          </mxGeometry>
        </mxCell>
        <mxCell id="831HMT7RGFxExj6qzCca-103" value="" style="rounded=0;orthogonalLoop=1;jettySize=auto;html=1;endArrow=oval;endFill=0;sketch=0;sourcePerimeterSpacing=0;targetPerimeterSpacing=0;endSize=10;exitX=1;exitY=0.5;exitDx=0;exitDy=0;strokeColor=#030303;" parent="1" source="831HMT7RGFxExj6qzCca-74" edge="1">
          <mxGeometry relative="1" as="geometry">
            <mxPoint x="364.5" y="291" as="sourcePoint" />
            <mxPoint x="403" y="290" as="targetPoint" />
          </mxGeometry>
        </mxCell>
        <mxCell id="831HMT7RGFxExj6qzCca-104" value="" style="rounded=0;whiteSpace=wrap;html=1;fillColor=#1ba1e2;fontColor=#ffffff;strokeColor=#000000;" parent="1" vertex="1">
          <mxGeometry x="443" y="364.5" width="12.5" height="10" as="geometry" />
        </mxCell>
        <mxCell id="831HMT7RGFxExj6qzCca-105" value="" style="rounded=0;orthogonalLoop=1;jettySize=auto;html=1;endArrow=halfCircle;endFill=0;endSize=6;strokeWidth=1;sketch=0;exitX=0.5;exitY=0;exitDx=0;exitDy=0;strokeColor=#030303;" parent="1" edge="1">
          <mxGeometry relative="1" as="geometry">
            <mxPoint x="449.25" y="364" as="sourcePoint" />
            <Array as="points">
              <mxPoint x="449" y="279" />
              <mxPoint x="449" y="270" />
              <mxPoint x="430" y="270" />
              <mxPoint x="403" y="270" />
              <mxPoint x="403" y="279" />
            </Array>
            <mxPoint x="403" y="289" as="targetPoint" />
          </mxGeometry>
        </mxCell>
        <mxCell id="831HMT7RGFxExj6qzCca-106" value="" style="rounded=0;whiteSpace=wrap;html=1;fillColor=#1ba1e2;fontColor=#ffffff;strokeColor=#000000;rotation=90;" parent="1" vertex="1">
          <mxGeometry x="319" y="450" width="12.5" height="10" as="geometry" />
        </mxCell>
        <mxCell id="831HMT7RGFxExj6qzCca-107" value="" style="rounded=0;orthogonalLoop=1;jettySize=auto;html=1;endArrow=halfCircle;endFill=0;endSize=6;strokeWidth=1;sketch=0;exitX=0.5;exitY=0;exitDx=0;exitDy=0;strokeColor=#030303;" parent="1" source="831HMT7RGFxExj6qzCca-106" edge="1">
          <mxGeometry relative="1" as="geometry">
            <mxPoint x="362.25000000000006" y="456" as="sourcePoint" />
            <Array as="points">
              <mxPoint x="403" y="456" />
            </Array>
            <mxPoint x="403" y="293" as="targetPoint" />
          </mxGeometry>
        </mxCell>
        <mxCell id="831HMT7RGFxExj6qzCca-108" value="" style="endArrow=block;startArrow=none;endFill=0;startFill=0;endSize=8;html=1;verticalAlign=bottom;dashed=1;labelBackgroundColor=none;rounded=0;exitX=0;exitY=0;exitDx=0;exitDy=47;exitPerimeter=0;entryX=1;entryY=0.25;entryDx=0;entryDy=0;fillColor=#000000;" parent="1" source="831HMT7RGFxExj6qzCca-52" target="831HMT7RGFxExj6qzCca-67" edge="1">
          <mxGeometry width="160" relative="1" as="geometry">
            <mxPoint x="815.5" y="399" as="sourcePoint" />
            <mxPoint x="331.5" y="388" as="targetPoint" />
            <Array as="points">
              <mxPoint x="610" y="245" />
            </Array>
          </mxGeometry>
        </mxCell>
        <mxCell id="831HMT7RGFxExj6qzCca-109" value="" style="endArrow=block;startArrow=none;endFill=0;startFill=0;endSize=8;html=1;verticalAlign=bottom;dashed=1;labelBackgroundColor=none;rounded=0;exitX=0;exitY=0;exitDx=0;exitDy=80;exitPerimeter=0;entryX=1;entryY=0.5;entryDx=0;entryDy=0;fillColor=#000000;" parent="1" edge="1">
          <mxGeometry width="160" relative="1" as="geometry">
            <mxPoint x="1111" y="290" as="sourcePoint" />
            <mxPoint x="575" y="405" as="targetPoint" />
            <Array as="points" />
          </mxGeometry>
        </mxCell>
        <mxCell id="831HMT7RGFxExj6qzCca-110" value="" style="endArrow=block;startArrow=none;endFill=0;startFill=0;endSize=8;html=1;verticalAlign=bottom;dashed=1;labelBackgroundColor=none;rounded=0;exitX=0;exitY=0;exitDx=0;exitDy=63.5;exitPerimeter=0;entryX=1.011;entryY=0.699;entryDx=0;entryDy=0;fillColor=#000000;entryPerimeter=0;" parent="1" source="831HMT7RGFxExj6qzCca-55" target="831HMT7RGFxExj6qzCca-87" edge="1">
          <mxGeometry width="160" relative="1" as="geometry">
            <mxPoint x="1006" y="480" as="sourcePoint" />
            <mxPoint x="470" y="595" as="targetPoint" />
            <Array as="points">
              <mxPoint x="460" y="480" />
            </Array>
          </mxGeometry>
        </mxCell>
        <mxCell id="831HMT7RGFxExj6qzCca-111" value="&amp;lt;&amp;lt;manifest&amp;gt;&amp;gt;" style="text;html=1;align=center;verticalAlign=middle;whiteSpace=wrap;rounded=0;" parent="1" vertex="1">
          <mxGeometry x="646" y="367" width="60" height="30" as="geometry" />
        </mxCell>
        <mxCell id="831HMT7RGFxExj6qzCca-115" value="&amp;lt;&amp;lt;manifest&amp;gt;&amp;gt;" style="text;html=1;align=center;verticalAlign=middle;whiteSpace=wrap;rounded=0;" parent="1" vertex="1">
          <mxGeometry x="666" y="450" width="60" height="30" as="geometry" />
        </mxCell>
        <mxCell id="831HMT7RGFxExj6qzCca-116" value="&amp;lt;&amp;lt;manifest&amp;gt;&amp;gt;" style="text;html=1;align=center;verticalAlign=middle;whiteSpace=wrap;rounded=0;" parent="1" vertex="1">
          <mxGeometry x="645" y="281.5" width="60" height="30" as="geometry" />
        </mxCell>
        <mxCell id="831HMT7RGFxExj6qzCca-117" value="&amp;lt;&amp;lt;manifest&amp;gt;&amp;gt;" style="text;html=1;align=center;verticalAlign=middle;whiteSpace=wrap;rounded=0;" parent="1" vertex="1">
          <mxGeometry x="653" y="164" width="60" height="30" as="geometry" />
        </mxCell>
      </root>
    </mxGraphModel>
  </diagram>
</mxfile>
